<?xml version="1.0" encoding="UTF-8"?>
<svg id="Layer_2" data-name="Layer 2" xmlns="http://www.w3.org/2000/svg" viewBox="0 0 693.92 186.74">
  <defs>
    <style>
      .cls-1 {
        fill: none;
        stroke: #fff;
        stroke-linecap: round;
        stroke-linejoin: round;
        stroke-width: 10.94px;
      }

      .cls-2, .cls-3 {
        fill-rule: evenodd;
      }

      .cls-2, .cls-3, .cls-4, .cls-5, .cls-6 {
        stroke-width: 0px;
      }

      .cls-2, .cls-4 {
        fill: #1d76bb;
      }

      .cls-3, .cls-5 {
        fill: #a5ce3b;
      }

      .cls-6 {
        fill: #fff;
      }
    </style>
  </defs>
  <g id="Layer_1-2" data-name="Layer 1">
    <g>
      <path class="cls-4" d="M60.6,178.38l-45.93-27.3c-9.1-5.41-14.67-15.21-14.67-25.79V46.71c0-6.25,5.06-11.31,11.31-11.31h110.13c6.25,0,11.31,5.06,11.31,11.31v78.59c0,10.58-5.58,20.38-14.67,25.79l-45.93,27.3c-3.56,2.12-8,2.12-11.56,0Z"/>
      <g>
        <path class="cls-4" d="M199.49,57.5h10.52l29.45,68.36h-13.9l-6.37-15.64h-29.64l-6.18,15.64h-13.61l29.74-68.36ZM214.94,99.79l-10.52-27.81-10.72,27.81h21.24Z"/>
        <path class="cls-4" d="M279.83,118.91h-.19c-1.67,2.83-3.93,4.89-6.76,6.18-2.83,1.29-5.89,1.93-9.17,1.93-3.61,0-6.81-.63-9.61-1.88-2.8-1.25-5.2-2.98-7.19-5.17-2-2.19-3.51-4.76-4.54-7.72-1.03-2.96-1.54-6.15-1.54-9.56s.55-6.6,1.64-9.56c1.09-2.96,2.62-5.54,4.59-7.72,1.96-2.19,4.33-3.91,7.1-5.17,2.77-1.26,5.79-1.88,9.08-1.88,2.19,0,4.12.23,5.79.68,1.67.45,3.15,1.03,4.44,1.74,1.29.71,2.38,1.46,3.28,2.27.9.81,1.64,1.59,2.22,2.37h.29v-32.54h11.59v72.99h-11.01v-6.95ZM252.41,102.69c0,1.8.3,3.54.92,5.21.61,1.67,1.51,3.15,2.7,4.44,1.19,1.29,2.62,2.32,4.3,3.09,1.67.77,3.57,1.16,5.7,1.16s4.02-.39,5.7-1.16c1.67-.77,3.1-1.8,4.3-3.09,1.19-1.29,2.09-2.77,2.7-4.44.61-1.67.92-3.41.92-5.21s-.31-3.54-.92-5.21c-.61-1.67-1.51-3.15-2.7-4.44-1.19-1.29-2.62-2.32-4.3-3.09-1.67-.77-3.57-1.16-5.7-1.16s-4.02.39-5.7,1.16c-1.67.77-3.11,1.8-4.3,3.09-1.19,1.29-2.09,2.77-2.7,4.44-.61,1.67-.92,3.41-.92,5.21Z"/>
        <path class="cls-4" d="M364.94,120.84c-8.43,4.51-17.86,6.76-28.29,6.76-5.28,0-10.12-.85-14.53-2.56-4.41-1.71-8.21-4.12-11.39-7.24-3.19-3.12-5.68-6.87-7.48-11.25-1.8-4.38-2.7-9.24-2.7-14.58s.9-10.44,2.7-14.92c1.8-4.47,4.3-8.29,7.48-11.44,3.19-3.15,6.98-5.58,11.39-7.29,4.41-1.71,9.25-2.56,14.53-2.56s10.11.63,14.68,1.88c4.57,1.25,8.66,3.49,12.26,6.71l-8.98,9.08c-2.19-2.12-4.84-3.77-7.97-4.92-3.12-1.16-6.42-1.74-9.9-1.74s-6.74.63-9.61,1.88c-2.86,1.26-5.33,2.99-7.39,5.21-2.06,2.22-3.65,4.81-4.78,7.77-1.13,2.96-1.69,6.15-1.69,9.56,0,3.67.56,7.05,1.69,10.14,1.12,3.09,2.72,5.76,4.78,8.01,2.06,2.25,4.52,4.02,7.39,5.31,2.86,1.29,6.07,1.93,9.61,1.93,3.09,0,6-.29,8.74-.87,2.74-.58,5.17-1.48,7.29-2.7v-16.12h-14v-11.01h26.17v34.95Z"/>
        <path class="cls-4" d="M419.24,125.86h-11.01v-7.43h-.19c-1.09,2.32-2.77,4.33-5.02,6.03-2.25,1.71-5.31,2.56-9.17,2.56-3.09,0-5.71-.5-7.87-1.5-2.16-1-3.91-2.35-5.26-4.06-1.35-1.7-2.32-3.65-2.9-5.84-.58-2.19-.87-4.47-.87-6.86v-29.26h11.59v23.46c0,1.29.06,2.72.19,4.3.13,1.58.47,3.06,1.01,4.44.55,1.39,1.38,2.54,2.51,3.48,1.13.93,2.72,1.4,4.78,1.4,1.93,0,3.56-.32,4.88-.96,1.32-.64,2.41-1.51,3.28-2.61.87-1.09,1.5-2.35,1.88-3.77.39-1.42.58-2.9.58-4.44v-25.3h11.59v46.35Z"/>
        <path class="cls-4" d="M460.01,119.49h-.29c-1.67,2.64-3.8,4.55-6.37,5.74-2.58,1.19-5.41,1.79-8.5,1.79-2.12,0-4.2-.29-6.23-.87-2.03-.58-3.83-1.45-5.41-2.61-1.58-1.16-2.85-2.61-3.81-4.34-.96-1.74-1.45-3.77-1.45-6.08,0-2.51.45-4.65,1.35-6.42.9-1.77,2.11-3.25,3.62-4.44,1.51-1.19,3.27-2.14,5.26-2.85,1.99-.71,4.07-1.24,6.23-1.59,2.16-.35,4.33-.58,6.52-.68s4.25-.14,6.18-.14h2.9v-1.26c0-2.9-1-5.07-2.99-6.52-2-1.45-4.54-2.17-7.63-2.17-2.45,0-4.73.43-6.86,1.3s-3.96,2.04-5.5,3.52l-6.08-6.08c2.57-2.64,5.58-4.54,9.03-5.7,3.44-1.16,7-1.74,10.67-1.74,3.28,0,6.05.37,8.3,1.11,2.25.74,4.12,1.69,5.6,2.85,1.48,1.16,2.62,2.5,3.43,4.01.8,1.51,1.38,3.04,1.74,4.59.35,1.54.56,3.04.63,4.49.06,1.45.1,2.72.1,3.81v26.65h-10.43v-6.37ZM459.34,105.1h-2.41c-1.61,0-3.41.06-5.41.19-2,.13-3.88.43-5.65.92-1.77.48-3.27,1.19-4.49,2.12-1.22.93-1.83,2.24-1.83,3.91,0,1.1.24,2.01.72,2.75.48.74,1.11,1.37,1.88,1.88.77.52,1.64.89,2.61,1.11.96.23,1.93.34,2.9.34,3.99,0,6.94-.95,8.83-2.85s2.85-4.49,2.85-7.77v-2.61Z"/>
        <path class="cls-4" d="M481.78,79.52h11.59v7.34h.19c1.29-2.7,3.12-4.79,5.5-6.28,2.38-1.48,5.12-2.22,8.21-2.22.71,0,1.4.06,2.08.19.68.13,1.37.29,2.08.48v11.2c-.96-.26-1.92-.47-2.85-.63-.93-.16-1.85-.24-2.75-.24-2.7,0-4.88.5-6.52,1.5-1.64,1-2.9,2.14-3.77,3.43-.87,1.29-1.45,2.58-1.74,3.86-.29,1.29-.43,2.25-.43,2.9v24.81h-11.59v-46.35Z"/>
        <path class="cls-4" d="M554.69,118.91h-.19c-1.67,2.83-3.93,4.89-6.76,6.18-2.83,1.29-5.89,1.93-9.17,1.93-3.61,0-6.81-.63-9.61-1.88-2.8-1.25-5.2-2.98-7.19-5.17-2-2.19-3.51-4.76-4.54-7.72-1.03-2.96-1.54-6.15-1.54-9.56s.55-6.6,1.64-9.56c1.09-2.96,2.62-5.54,4.59-7.72,1.96-2.19,4.33-3.91,7.1-5.17,2.77-1.26,5.79-1.88,9.08-1.88,2.19,0,4.12.23,5.79.68,1.67.45,3.15,1.03,4.44,1.74,1.29.71,2.38,1.46,3.28,2.27.9.81,1.64,1.59,2.22,2.37h.29v-32.54h11.59v72.99h-11.01v-6.95ZM527.27,102.69c0,1.8.3,3.54.92,5.21.61,1.67,1.51,3.15,2.7,4.44,1.19,1.29,2.62,2.32,4.3,3.09,1.67.77,3.57,1.16,5.7,1.16s4.02-.39,5.7-1.16c1.67-.77,3.1-1.8,4.3-3.09,1.19-1.29,2.09-2.77,2.7-4.44.61-1.67.92-3.41.92-5.21s-.31-3.54-.92-5.21c-.61-1.67-1.51-3.15-2.7-4.44-1.19-1.29-2.62-2.32-4.3-3.09-1.67-.77-3.57-1.16-5.7-1.16s-4.02.39-5.7,1.16c-1.67.77-3.11,1.8-4.3,3.09-1.19,1.29-2.09,2.77-2.7,4.44-.61,1.67-.92,3.41-.92,5.21Z"/>
        <path class="cls-4" d="M575.97,63.78c0-1.87.69-3.49,2.08-4.88,1.38-1.38,3.14-2.08,5.26-2.08s3.91.66,5.36,1.98c1.45,1.32,2.17,2.98,2.17,4.97s-.72,3.65-2.17,4.97c-1.45,1.32-3.24,1.98-5.36,1.98s-3.88-.69-5.26-2.08c-1.38-1.38-2.08-3.01-2.08-4.88ZM577.61,79.52h11.59v46.35h-11.59v-46.35Z"/>
        <path class="cls-4" d="M629.87,119.49h-.29c-1.67,2.64-3.8,4.55-6.37,5.74-2.58,1.19-5.41,1.79-8.5,1.79-2.12,0-4.2-.29-6.23-.87-2.03-.58-3.83-1.45-5.41-2.61-1.58-1.16-2.85-2.61-3.81-4.34-.96-1.74-1.45-3.77-1.45-6.08,0-2.51.45-4.65,1.35-6.42.9-1.77,2.11-3.25,3.62-4.44,1.51-1.19,3.27-2.14,5.26-2.85,1.99-.71,4.07-1.24,6.23-1.59,2.16-.35,4.33-.58,6.52-.68s4.25-.14,6.18-.14h2.9v-1.26c0-2.9-1-5.07-2.99-6.52-2-1.45-4.54-2.17-7.63-2.17-2.45,0-4.73.43-6.86,1.3s-3.96,2.04-5.5,3.52l-6.08-6.08c2.57-2.64,5.58-4.54,9.03-5.7,3.44-1.16,7-1.74,10.67-1.74,3.28,0,6.05.37,8.3,1.11,2.25.74,4.12,1.69,5.6,2.85,1.48,1.16,2.62,2.5,3.43,4.01.8,1.51,1.38,3.04,1.74,4.59.35,1.54.56,3.04.63,4.49.06,1.45.1,2.72.1,3.81v26.65h-10.43v-6.37ZM629.19,105.1h-2.41c-1.61,0-3.41.06-5.41.19-2,.13-3.88.43-5.65.92-1.77.48-3.27,1.19-4.49,2.12-1.22.93-1.83,2.24-1.83,3.91,0,1.1.24,2.01.72,2.75.48.74,1.11,1.37,1.88,1.88.77.52,1.64.89,2.61,1.11.96.23,1.93.34,2.9.34,3.99,0,6.94-.95,8.83-2.85s2.85-4.49,2.85-7.77v-2.61Z"/>
        <path class="cls-4" d="M651.63,79.52h11.01v7.43h.19c1.09-2.32,2.77-4.33,5.02-6.03,2.25-1.71,5.31-2.56,9.17-2.56,3.09,0,5.71.52,7.87,1.54,2.16,1.03,3.91,2.38,5.26,4.05,1.35,1.67,2.32,3.61,2.9,5.79.58,2.19.87,4.47.87,6.86v29.26h-11.59v-23.46c0-1.29-.06-2.72-.19-4.3-.13-1.58-.47-3.06-1.01-4.44-.55-1.38-1.4-2.54-2.56-3.48-1.16-.93-2.74-1.4-4.73-1.4s-3.56.32-4.88.96c-1.32.64-2.41,1.51-3.28,2.61-.87,1.1-1.5,2.35-1.88,3.77-.39,1.42-.58,2.9-.58,4.44v25.3h-11.59v-46.35Z"/>
      </g>
      <g id="Layer_1-2" data-name="Layer 1-2">
        <path class="cls-4" d="M370.42,184.76c-2.21-1.31-3.95-3.14-5.2-5.48-1.25-2.34-1.88-4.99-1.88-7.95s.62-5.61,1.84-7.95c1.23-2.34,2.95-4.17,5.17-5.48,2.21-1.31,4.72-1.97,7.52-1.97,2.38,0,4.46.5,6.23,1.51,1.78,1.01,3.39,2.43,4.85,4.28l-3.13,2.4c-2.05-2.92-4.7-4.37-7.95-4.37-1.96,0-3.72.49-5.29,1.48-1.57.98-2.79,2.36-3.66,4.13-.88,1.77-1.31,3.76-1.31,5.98s.44,4.21,1.31,5.98c.88,1.77,2.1,3.14,3.66,4.13,1.56.98,3.33,1.48,5.29,1.48s3.65-.34,4.95-1.02,2.46-1.67,3.51-2.99l3.32,2.28c-1.38,1.69-3.08,3.03-5.1,4.03-2.03,1.01-4.21,1.51-6.54,1.51-2.84,0-5.36-.66-7.58-1.97"/>
        <path class="cls-4" d="M409.19,184.76c-2.21-1.31-3.95-3.15-5.2-5.51-1.25-2.36-1.88-5.03-1.88-7.98s.62-5.6,1.85-7.92c1.23-2.32,2.94-4.14,5.13-5.45,2.19-1.31,4.69-1.97,7.48-1.97s5.3.66,7.52,1.97c2.21,1.31,3.95,3.14,5.2,5.48,1.25,2.34,1.88,4.99,1.88,7.95s-.62,5.61-1.85,7.95-2.94,4.17-5.13,5.48c-2.19,1.31-4.69,1.97-7.48,1.97s-5.3-.66-7.52-1.97M421.93,181.43c1.57-.98,2.79-2.36,3.66-4.13.88-1.77,1.31-3.76,1.31-5.98s-.44-4.21-1.31-5.98c-.88-1.77-2.1-3.14-3.66-4.13-1.57-.98-3.35-1.48-5.35-1.48s-3.71.49-5.26,1.48c-1.54.99-2.76,2.35-3.63,4.1s-1.32,3.73-1.32,5.95.44,4.27,1.32,6.04c.88,1.77,2.08,3.14,3.63,4.13,1.54.98,3.3,1.48,5.26,1.48s3.79-.49,5.35-1.48"/>
        <path class="cls-4" d="M465.58,157.15c1.73.82,3.11,2.04,4.13,3.64,1.02,1.6,1.53,3.49,1.53,5.67v20.27h-4.26v-18.42c0-5.71-2.59-8.57-7.77-8.57-3.01,0-5.26,1.05-6.76,3.15-1.5,2.09-2.26,4.91-2.26,8.44v15.4h-4.26v-29.82h4.26v4.8c1-1.85,2.33-3.28,3.98-4.28,1.65-1.01,3.56-1.51,5.73-1.51,2.05,0,3.94.41,5.67,1.23"/>
        <path class="cls-4" d="M508.12,157.83c2.13,1.27,3.8,3.01,5.01,5.21,1.21,2.2,1.81,4.65,1.81,7.36,0,.78-.02,1.38-.06,1.79h-24.11c.16,2.96,1.15,5.49,2.94,7.58,1.79,2.09,4.24,3.15,7.33,3.15,2.51,0,4.58-.46,6.23-1.39,1.65-.92,2.97-2.21,3.98-3.85l3.38,2.22c-1.38,2.14-3.19,3.81-5.45,5.03-2.25,1.21-4.93,1.82-8.02,1.82-2.84,0-5.36-.66-7.57-1.97-2.21-1.31-3.95-3.14-5.2-5.48-1.25-2.34-1.88-4.99-1.88-7.95s.62-5.61,1.85-7.95c1.23-2.34,2.94-4.17,5.13-5.48,2.19-1.31,4.69-1.97,7.48-1.97,2.63,0,5.01.64,7.14,1.91M510.69,168.73c-.42-3-1.44-5.25-3.07-6.75-1.63-1.5-3.84-2.25-6.64-2.25s-4.94.85-6.67,2.56c-1.73,1.71-2.83,3.85-3.29,6.44h19.66Z"/>
        <path class="cls-4" d="M571.46,150.31c-.65-.66-.97-1.46-.97-2.4s.32-1.67.97-2.31c.65-.64,1.45-.96,2.41-.96s1.71.32,2.38.96c.67.64,1,1.43,1,2.37s-.34,1.69-1,2.34c-.67.66-1.46.98-2.38.98-.96,0-1.77-.33-2.41-.98M571.74,155.93h4.26v30.8h-4.26v-30.8Z"/>
        <path class="cls-4" d="M621.05,156.9v28.84h-4.26v-4.25c-1.21,1.64-2.69,2.93-4.45,3.85-1.75.93-3.68,1.39-5.76,1.39-2.8,0-5.3-.66-7.52-1.97-2.21-1.31-3.95-3.14-5.2-5.48-1.25-2.34-1.88-5.01-1.88-8.01s.62-5.6,1.85-7.92c1.23-2.32,2.94-4.14,5.13-5.45,2.19-1.31,4.69-1.97,7.48-1.97,2.13,0,4.08.46,5.86,1.39,1.78.93,3.27,2.23,4.48,3.91v-4.31h4.26ZM611.81,181.43c1.57-.98,2.79-2.36,3.66-4.13.88-1.77,1.31-3.76,1.31-5.98s-.44-4.21-1.31-5.98c-.88-1.77-2.1-3.14-3.66-4.13-1.57-.98-3.35-1.48-5.35-1.48s-3.71.49-5.26,1.48c-1.54.99-2.76,2.35-3.63,4.1-.88,1.75-1.32,3.73-1.32,5.95s.44,4.27,1.32,6.04c.88,1.77,2.08,3.14,3.63,4.13,1.54.98,3.3,1.48,5.26,1.48s3.79-.49,5.35-1.48"/>
        <path class="cls-4" d="M657.34,157.18c1.73.85,3.11,2.09,4.13,3.74s1.53,3.6,1.53,5.84v19.86h-4.26v-17.96c0-5.88-2.59-8.82-7.77-8.82-3.01,0-5.26,1.08-6.76,3.24-1.5,2.16-2.25,5.06-2.25,8.69v14.85h-4.26v-29.69h4.26v4.95c1-1.9,2.33-3.37,3.98-4.41,1.65-1.03,3.56-1.55,5.73-1.55,2.05,0,3.94.42,5.67,1.27"/>
        <polygon class="cls-4" points="681.66 186.63 681.66 161.03 676.66 161.03 676.66 157.12 681.66 157.12 681.66 147.35 685.92 147.35 685.92 157.12 692.69 157.12 692.69 161.03 685.92 161.03 685.92 186.63 681.66 186.63"/>
        <path class="cls-3" d="M526.42,155.94h3.99s.69,0,1.16.25c.47.25.84.84.84.84l9.1,14.24-8.94,14.06s-.4.65-.94,1.03c-.59.41-1.29.38-1.29.38h-3.96l10.36-15.45-10.32-15.33h0Z"/>
        <path class="cls-2" d="M556.96,155.94h-3.99s-.69,0-1.16.25c-.47.25-.84.84-.84.84l-9.1,14.24,8.94,14.06s.4.65.94,1.03c.59.41,1.29.38,1.29.38h3.96l-10.36-15.45,10.32-15.33h0Z"/>
      </g>
      <g>
        <path class="cls-6" d="M66.38,164c-1.77,0-3.5-.48-5.02-1.38l-47.63-28.31c-3.01-1.79-4.81-4.95-4.81-8.45s1.8-6.66,4.81-8.45l47.63-28.31c1.52-.9,3.26-1.38,5.02-1.38s3.5.48,5.02,1.38l47.63,28.31c3.01,1.79,4.81,4.95,4.81,8.45s-1.8,6.66-4.81,8.45l-47.63,28.31c-1.52.9-3.26,1.38-5.02,1.38Z"/>
        <path class="cls-4" d="M66.38,91.3c1.1,0,2.21.29,3.19.88l47.63,28.31c4.08,2.42,4.08,8.32,0,10.74l-47.63,28.31c-.98.58-2.09.88-3.19.88s-2.21-.29-3.19-.88l-47.63-28.31c-4.08-2.42-4.08-8.32,0-10.74l47.63-28.31c.98-.58,2.09-.88,3.19-.88M66.38,84.14c-2.41,0-4.78.65-6.85,1.88l-47.63,28.31c-4.11,2.44-6.56,6.75-6.56,11.53,0,4.78,2.45,9.09,6.56,11.53l47.63,28.31c2.07,1.23,4.44,1.88,6.85,1.88s4.78-.65,6.85-1.88l47.63-28.31c4.11-2.44,6.56-6.75,6.56-11.53s-2.45-9.09-6.56-11.53l-47.63-28.31c-2.07-1.23-4.44-1.88-6.85-1.88h0Z"/>
      </g>
      <g>
        <path class="cls-6" d="M66.38,135.2c-1.77,0-3.5-.48-5.02-1.38l-47.63-28.31c-3.01-1.79-4.81-4.95-4.81-8.45,0-3.5,1.8-6.66,4.81-8.45l47.63-28.31c1.52-.9,3.26-1.38,5.02-1.38s3.5.48,5.02,1.38l47.63,28.31c3.01,1.79,4.81,4.95,4.81,8.45s-1.8,6.66-4.81,8.45l-47.63,28.31c-1.52.9-3.26,1.38-5.02,1.38Z"/>
        <path class="cls-4" d="M66.38,62.5c1.1,0,2.21.29,3.19.88l47.63,28.31c4.08,2.42,4.08,8.32,0,10.74l-47.63,28.31c-.98.58-2.09.88-3.19.88s-2.21-.29-3.19-.88l-47.63-28.31c-4.08-2.42-4.08-8.32,0-10.74l47.63-28.31c.98-.58,2.09-.88,3.19-.88M66.38,55.34c-2.41,0-4.78.65-6.85,1.88l-47.63,28.31c-4.11,2.44-6.56,6.75-6.56,11.53s2.45,9.09,6.56,11.53l47.63,28.31c2.07,1.23,4.44,1.88,6.85,1.88s4.78-.65,6.85-1.88l47.63-28.31c4.11-2.44,6.56-6.75,6.56-11.53s-2.45-9.09-6.56-11.53l-47.63-28.31c-2.07-1.23-4.44-1.88-6.85-1.88h0Z"/>
      </g>
      <g>
        <path class="cls-6" d="M66.38,108.09c-1.77,0-3.5-.48-5.02-1.38l-47.63-28.31c-3.01-1.79-4.81-4.95-4.81-8.45,0-3.5,1.8-6.66,4.81-8.45l47.63-28.31c1.52-.9,3.26-1.38,5.02-1.38s3.5.48,5.02,1.38l47.63,28.31c3.01,1.79,4.81,4.95,4.81,8.45s-1.8,6.66-4.81,8.45l-47.63,28.31c-1.52.9-3.26,1.38-5.02,1.38Z"/>
        <path class="cls-4" d="M66.38,35.39c1.1,0,2.21.29,3.19.88l47.63,28.31c4.08,2.42,4.08,8.32,0,10.74l-47.63,28.31c-.98.58-2.09.88-3.19.88s-2.21-.29-3.19-.88l-47.63-28.31c-4.08-2.42-4.08-8.32,0-10.74l47.63-28.31c.98-.58,2.09-.88,3.19-.88M66.38,28.23c-2.41,0-4.78.65-6.85,1.88L11.89,58.42c-4.11,2.44-6.56,6.75-6.56,11.53s2.45,9.09,6.56,11.53l47.63,28.31c2.07,1.23,4.44,1.88,6.85,1.88s4.78-.65,6.85-1.88l47.63-28.31c4.11-2.44,6.56-6.75,6.56-11.53s-2.45-9.09-6.56-11.53l-47.63-28.31c-2.07-1.23-4.44-1.88-6.85-1.88h0Z"/>
      </g>
      <g>
        <path class="cls-5" d="M66.86,71.87c-18.95,0-34.37-15.42-34.37-34.37S47.9,3.12,66.86,3.12s34.37,15.42,34.37,34.37-15.42,34.37-34.37,34.37Z"/>
        <path class="cls-6" d="M66.86,6.25c17.26,0,31.25,13.99,31.25,31.25s-13.99,31.25-31.25,31.25-31.25-13.99-31.25-31.25,13.99-31.25,31.25-31.25M66.86,0C46.18,0,29.36,16.82,29.36,37.5s16.82,37.5,37.5,37.5,37.5-16.82,37.5-37.5S87.53,0,66.86,0h0Z"/>
      </g>
      <polyline class="cls-1" points="52.56 37.65 62 47.09 81.18 27.91"/>
    </g>
  </g>
</svg>