<?xml version="1.0" encoding="UTF-8"?><svg id="Layer_2" xmlns="http://www.w3.org/2000/svg" viewBox="0 0 1000 127.8"><defs><style>.cls-1,.cls-2{fill-rule:evenodd;}.cls-1,.cls-2,.cls-3{stroke-width:0px;}.cls-1,.cls-3{fill:#1d76bb;}.cls-2{fill:#a5ce3b;}</style></defs><g id="Layer_1-2"><path class="cls-3" d="M21.48,121.81c-6.72-3.99-11.98-9.54-15.78-16.65-3.8-7.11-5.7-15.16-5.7-24.14s1.87-17.03,5.6-24.14c3.74-7.11,8.97-12.66,15.69-16.65,6.72-3.99,14.32-5.99,22.82-5.99,7.23,0,13.53,1.53,18.92,4.58,5.39,3.06,10.29,7.39,14.74,13.01l-9.51,7.29c-6.21-8.86-14.26-13.28-24.15-13.28-5.96,0-11.31,1.5-16.06,4.5-4.76,2.99-8.46,7.17-11.12,12.53-2.66,5.36-3.99,11.41-3.99,18.15s1.33,12.79,3.99,18.15c2.66,5.36,6.37,9.54,11.12,12.53,4.75,2.99,10.1,4.49,16.06,4.49s11.09-1.03,15.02-3.09c3.93-2.06,7.48-5.08,10.65-9.07l10.08,6.92c-4.19,5.12-9.35,9.2-15.5,12.25-6.15,3.06-12.77,4.59-19.87,4.59-8.62,0-16.29-2-23.01-5.99"/><path class="cls-3" d="M139.18,121.81c-6.72-3.99-11.98-9.57-15.79-16.74-3.8-7.18-5.7-15.26-5.7-24.23s1.87-17,5.61-24.05c3.74-7.04,8.93-12.57,15.59-16.56,6.65-3.99,14.23-5.99,22.72-5.99s16.1,2,22.82,5.99c6.72,3.99,11.98,9.54,15.78,16.65s5.7,15.16,5.7,24.14-1.87,17.03-5.61,24.14c-3.74,7.11-8.94,12.66-15.59,16.65-6.65,3.99-14.23,5.99-22.72,5.99s-16.1-2-22.82-5.99M177.87,111.71c4.76-2.99,8.46-7.17,11.12-12.54,2.66-5.36,3.99-11.42,3.99-18.15s-1.33-12.79-3.99-18.15c-2.66-5.36-6.37-9.54-11.12-12.53-4.76-2.99-10.17-4.49-16.26-4.49s-11.28,1.5-15.97,4.49c-4.69,3-8.37,7.14-11.03,12.44-2.66,5.3-4,11.32-4,18.06s1.33,12.97,4,18.34c2.66,5.37,6.33,9.54,11.03,12.54,4.69,2.99,10.01,4.49,15.97,4.49s11.5-1.5,16.26-4.49"/><path class="cls-3" d="M310.4,37.98c5.26,2.5,9.44,6.18,12.55,11.04s4.66,10.61,4.66,17.22v61.55h-12.93v-55.94c0-17.34-7.86-26.01-23.58-26.01-9.13,0-15.97,3.18-20.53,9.55-4.56,6.36-6.85,14.9-6.85,25.63v46.77h-12.92V37.24h12.92v14.59c3.04-5.61,7.06-9.95,12.07-13.01,5.01-3.06,10.81-4.58,17.4-4.58,6.21,0,11.95,1.25,17.21,3.74"/><path class="cls-3" d="M439.59,40.04c6.46,3.87,11.53,9.14,15.21,15.81,3.67,6.67,5.51,14.13,5.51,22.36,0,2.37-.07,4.18-.19,5.43h-73.2c.5,8.98,3.48,16.66,8.94,23.02,5.45,6.36,12.87,9.55,22.25,9.55,7.61,0,13.91-1.4,18.92-4.21,5.01-2.8,9.03-6.7,12.07-11.69l10.27,6.73c-4.18,6.49-9.7,11.58-16.54,15.26-6.84,3.67-14.96,5.52-24.34,5.52-8.62,0-16.29-2-23-5.99-6.72-3.99-11.98-9.54-15.79-16.65-3.8-7.11-5.7-15.16-5.7-24.14s1.87-17.03,5.61-24.14c3.74-7.11,8.93-12.66,15.59-16.65,6.65-3.99,14.23-5.99,22.72-5.99,7.99,0,15.21,1.93,21.68,5.8M447.39,73.16c-1.27-9.1-4.37-15.93-9.32-20.49-4.94-4.55-11.67-6.83-20.16-6.83s-14.99,2.59-20.25,7.76c-5.26,5.18-8.59,11.69-9.98,19.55h59.71Z"/><path class="cls-3" d="M631.9,17.22c-1.97-1.99-2.95-4.43-2.95-7.3s.98-5.08,2.95-7.02c1.96-1.93,4.4-2.9,7.32-2.9s5.2.97,7.22,2.9,3.04,4.33,3.04,7.21-1.02,5.12-3.04,7.11c-2.02,2-4.44,2.99-7.22,2.99-2.92,0-5.36-1-7.32-2.99M632.75,34.27h12.93v93.52h-12.93V34.27Z"/><path class="cls-3" d="M782.48,37.24v87.57h-12.93v-12.91c-3.67,4.99-8.17,8.89-13.5,11.7-5.32,2.81-11.16,4.21-17.49,4.21-8.5,0-16.1-2-22.82-5.99-6.72-3.99-11.98-9.54-15.79-16.65-3.8-7.11-5.7-15.22-5.7-24.32s1.87-17,5.61-24.05c3.74-7.04,8.93-12.57,15.59-16.56,6.65-3.99,14.23-5.99,22.72-5.99,6.46,0,12.38,1.4,17.78,4.21,5.39,2.81,9.92,6.76,13.59,11.88v-13.1h12.93ZM754.44,111.71c4.76-2.99,8.46-7.17,11.12-12.54,2.66-5.36,3.99-11.42,3.99-18.15s-1.33-12.79-3.99-18.15c-2.66-5.36-6.37-9.54-11.12-12.53-4.76-2.99-10.17-4.49-16.25-4.49s-11.28,1.5-15.97,4.49c-4.69,3-8.37,7.14-11.03,12.44-2.66,5.3-4,11.32-4,18.06s1.33,12.97,4,18.34c2.66,5.37,6.33,9.54,11.03,12.54,4.69,2.99,10.01,4.49,15.97,4.49s11.5-1.5,16.25-4.49"/><path class="cls-3" d="M892.67,38.09c5.26,2.58,9.44,6.36,12.55,11.37s4.66,10.92,4.66,17.72v60.3h-12.92v-54.52c0-17.85-7.86-26.78-23.58-26.78-9.13,0-15.97,3.27-20.54,9.83-4.56,6.55-6.84,15.35-6.84,26.39v45.08h-12.93V37.33h12.93v15.03c3.04-5.78,7.06-10.24,12.07-13.39,5.01-3.14,10.81-4.72,17.4-4.72,6.21,0,11.95,1.29,17.21,3.85"/><polygon class="cls-3" points="966.53 127.49 966.53 49.77 951.33 49.77 951.33 37.9 966.53 37.9 966.53 8.23 979.46 8.23 979.46 37.9 1000 37.9 1000 49.77 979.46 49.77 979.46 127.49 966.53 127.49"/><path class="cls-2" d="M495.16,34.31h12.12s2.09-.02,3.53.76c1.42.77,2.54,2.55,2.54,2.55l27.63,43.23-27.15,42.68s-1.21,1.97-2.85,3.12c-1.79,1.25-3.91,1.14-3.91,1.14h-12.03l31.46-46.92-31.34-46.55h0Z"/><path class="cls-1" d="M587.89,34.31h-12.12s-2.09-.02-3.53.76c-1.42.77-2.54,2.55-2.54,2.55l-27.63,43.23,27.15,42.68s1.21,1.97,2.85,3.12c1.79,1.25,3.91,1.14,3.91,1.14h12.03l-31.45-46.92,31.33-46.55h0Z"/></g></svg>